<svg width="14" height="16" viewBox="0 0 14 16" fill="none" xmlns="http://www.w3.org/2000/svg">
<path fill-rule="evenodd" clip-rule="evenodd" d="M9.99939 7H3.99939H2.89535L2.11735 14H11.8823L11.1043 7H9.99939ZM8.99939 4V5H4.99939V4C4.99939 2.9 5.89639 2 6.99939 2C8.10339 2 8.99939 2.9 8.99939 4ZM2.99939 5V4C2.99939 1.79 4.79439 0 6.99939 0C9.20539 0 10.9994 1.79 10.9994 4V5H11.9993C12.5093 5 12.9373 5.38 12.9933 5.89L13.9723 14.69C14.0006 14.7811 14.0003 14.8721 14.0001 14.9707C14 14.9804 14 14.9902 14 15C14 15.55 13.5723 16 13.0203 16H0.999346C0.715346 16 0.444346 15.88 0.254346 15.67C0.0643456 15.46 -0.0256544 15.17 0.00634561 14.89L1.00635 5.89C1.06235 5.38 1.49035 5 1.99935 5H2.99939Z" fill="black"/>
</svg>
