<svg width="150" height="32" viewBox="0 0 150 32" fill="none" xmlns="http://www.w3.org/2000/svg">
<g clip-path="url(#clip0_101_265)">
<path d="M11.1245 17.4663L20.0153 31.5059C20.1203 31.6666 20.2649 31.797 20.4349 31.8845C20.6049 31.9719 20.7945 32.0135 20.9851 32.0051H24.2789C24.4275 32.0069 24.5749 31.9787 24.7126 31.9222C24.8503 31.8658 24.9754 31.7822 25.0807 31.6764C25.1859 31.5706 25.2691 31.4446 25.3253 31.306C25.3817 31.1674 25.41 31.0188 25.4086 30.869V1.13612C25.4064 0.898992 25.3314 0.668385 25.1939 0.475918C25.0565 0.28345 24.8634 0.138549 24.6411 0.061087C24.4187 -0.0163748 24.178 -0.022604 23.952 0.0432537C23.726 0.109111 23.5257 0.24383 23.3787 0.428936L11.1245 16.1014C10.9917 16.3038 10.9209 16.5411 10.9209 16.7838C10.9209 17.0265 10.9917 17.2638 11.1245 17.4663Z" fill="#A6A6A6"/>
<path d="M1.12973 32.0002H6.99506C7.14368 32.002 7.29115 31.9737 7.42882 31.9173C7.56649 31.8608 7.69161 31.7772 7.79683 31.6715C7.90204 31.5656 7.98526 31.4397 8.04153 31.3011C8.09788 31.1624 8.12621 31.0139 8.12478 30.864V23.3242C8.12121 23.0874 8.04518 22.8575 7.90726 22.6657C7.76932 22.474 7.57609 22.3298 7.3539 22.2528C7.13171 22.1758 6.89137 22.1696 6.66561 22.2353C6.43985 22.3009 6.23966 22.4352 6.0923 22.6196L0.226977 30.1595C0.10178 30.33 0.025654 30.5321 0.00696415 30.7435C-0.0117257 30.9548 0.0277435 31.1673 0.121035 31.3576C0.214327 31.5478 0.357831 31.7084 0.535782 31.8218C0.713732 31.9352 0.919242 31.9969 1.12973 32.0002Z" fill="#A6A6A6"/>
<path d="M105.89 15.0481C105.824 14.9654 105.75 14.888 105.671 14.8168L105.55 14.7128L105.488 14.6581C105.209 14.421 104.905 14.2136 104.583 14.0393C104.233 13.8283 103.863 13.654 103.479 13.5193C103.086 13.3776 102.681 13.2698 102.269 13.197C101.206 13.0064 100.114 13.0624 99.0762 13.3608C98.4555 13.5376 97.8595 13.7918 97.3016 14.1173C96.7531 14.4412 96.2476 14.8344 95.7976 15.2873C95.3492 15.7443 94.9539 16.251 94.619 16.7979C94.2785 17.3487 94.0182 17.9458 93.8452 18.571C93.4793 19.8642 93.4793 21.2349 93.8452 22.5281C94.0222 23.151 94.2825 23.7467 94.619 24.2987C94.9539 24.8456 95.3492 25.3523 95.7976 25.8092C96.25 26.2628 96.7563 26.6568 97.3063 26.9818C97.8658 27.2981 98.4587 27.551 99.0738 27.7358C100.138 28.056 101.263 28.1123 102.355 27.8996C102.774 27.8297 103.184 27.712 103.577 27.5486C103.954 27.3936 104.318 27.2102 104.668 27C105.015 26.7914 105.35 26.5613 105.669 26.311C105.76 26.2304 105.847 26.1436 105.927 26.0511L105.968 26.0043C106.044 25.9124 106.102 25.8064 106.138 25.6923L106.154 25.5987C106.162 25.4489 106.127 25.3 106.053 25.1696L106.017 25.1124C105.989 25.0664 105.957 25.0229 105.921 24.9824L105.826 24.8524C105.635 24.5924 105.455 24.3325 105.261 24.0933C105.179 23.9984 105.077 23.9236 104.962 23.8749C104.848 23.8359 104.723 23.8359 104.609 23.8749C104.444 23.9487 104.295 24.0517 104.167 24.1791L103.998 24.3247C103.829 24.4651 103.74 24.5561 103.505 24.7224C103.294 24.8848 103.065 25.0234 102.824 25.1359C102.563 25.2696 102.287 25.3675 102.001 25.4271C101.059 25.6325 100.079 25.5286 99.2 25.1307C98.6349 24.8743 98.1222 24.5156 97.6857 24.0725C97.2381 23.6195 96.8801 23.0848 96.6309 22.4969C96.3658 21.9004 96.2285 21.254 96.2285 20.6003C96.2285 19.9465 96.3658 19.3002 96.6309 18.7036C96.8825 18.1128 97.2389 17.5735 97.6833 17.1124C98.1254 16.6665 98.6389 16.2991 99.2024 16.0257C100.018 15.6354 100.939 15.5258 101.823 15.7137C102.119 15.782 102.409 15.8742 102.69 15.9893C102.958 16.104 103.217 16.2396 103.463 16.3949C103.979 16.7016 104.562 17.5804 105.127 16.8836L105.944 15.7761C105.983 15.7231 106.01 15.6628 106.025 15.5989C106.04 15.5351 106.041 15.4688 106.03 15.4043C106.016 15.2752 105.967 15.1523 105.89 15.0481Z" fill="#A6A6A6"/>
<path d="M55.5943 26.8342L46.6493 6.31809C46.5893 6.16574 46.4856 6.0349 46.3514 5.94228C46.2172 5.84965 46.0587 5.79945 45.8961 5.7981H44.4621C44.3017 5.79745 44.1448 5.8448 44.0112 5.93413C43.8775 6.02345 43.7733 6.15075 43.7114 6.29989L34.7484 26.8108C34.6868 26.9362 34.6591 27.0759 34.6682 27.2156C34.6772 27.3552 34.7227 27.49 34.8 27.6064C34.8731 27.7252 34.9753 27.823 35.0969 27.8904C35.2184 27.9578 35.3551 27.9925 35.4938 27.9912H36.817C36.9783 27.9944 37.1366 27.9482 37.2711 27.8586C37.4057 27.7689 37.51 27.6401 37.5702 27.4893L39.7213 22.4272H50.593L52.7313 27.4893C52.7914 27.6421 52.8956 27.7732 53.0302 27.8659C53.1649 27.9585 53.324 28.0085 53.487 28.0093H54.7767C54.9104 28.0179 55.0441 27.9927 55.1658 27.9359C55.2874 27.8792 55.393 27.7927 55.4731 27.6844C55.5673 27.5668 55.6283 27.4257 55.6497 27.276C55.671 27.1264 55.6519 26.9737 55.5943 26.8342ZM40.8665 19.8144L40.9026 19.7337L45.2126 9.62261L49.5356 19.8144H40.8665Z" fill="#A6A6A6"/>
<path d="M137.495 18.2593C137.272 17.4654 136.924 16.713 136.463 16.0312C136.123 15.5724 135.732 15.1544 135.297 14.7858C134.885 14.416 134.418 14.1142 133.912 13.8914C133.418 13.643 132.9 13.4495 132.364 13.3142C131.169 13.0174 129.917 13.0416 128.733 13.3844C128.126 13.5546 127.544 13.8083 127.005 14.1384C126.472 14.4731 125.98 14.8692 125.537 15.3188C125.103 15.768 124.734 16.2775 124.444 16.8319C124.134 17.3964 123.898 17.9984 123.74 18.6232C123.464 19.6182 123.409 20.6622 123.58 21.6808C123.624 22.0788 123.7 22.4727 123.807 22.8586C124.029 23.6543 124.377 24.4084 124.838 25.0919C125.178 25.55 125.569 25.9669 126.004 26.3347C126.418 26.7049 126.886 27.0076 127.391 27.2316C127.885 27.4804 128.404 27.6732 128.939 27.8063C130.763 28.2556 132.689 27.9593 134.296 26.982C134.83 26.6481 135.322 26.2528 135.764 25.8043C136.186 25.3729 136.541 24.8804 136.819 24.3432L136.842 24.2912C136.895 24.2204 136.926 24.1365 136.933 24.0488C136.941 23.961 136.923 23.873 136.883 23.7945C136.851 23.7349 136.804 23.6848 136.746 23.6492C136.689 23.6136 136.623 23.5939 136.556 23.5917H134.418C134.328 23.5896 134.238 23.6084 134.156 23.6468C134.075 23.6851 134.003 23.7419 133.945 23.8128C133.676 24.142 133.362 24.4309 133.012 24.6708C132.637 24.912 132.23 25.0968 131.803 25.2193C130.853 25.4964 129.842 25.4673 128.911 25.1361C128.415 24.9546 127.949 24.6987 127.529 24.3769C127.12 24.0501 126.781 23.6444 126.53 23.1836C126.311 22.6854 126.156 22.1612 126.068 21.6236L126.056 21.556H126.128L137.116 21.5326C137.567 21.5326 137.822 21.2518 137.822 20.7526C137.853 19.9089 137.741 19.0661 137.495 18.2593ZM135.156 19.2395L126.264 19.2811L126.287 19.2056C126.436 18.6996 126.657 18.2185 126.945 17.7783C127.297 17.2556 127.743 16.8048 128.261 16.4497C128.638 16.2058 129.049 16.0192 129.481 15.896C130.43 15.6188 131.441 15.648 132.372 15.9792C132.868 16.1607 133.334 16.4166 133.755 16.7383C134.165 17.0669 134.506 17.4754 134.756 17.9395C134.973 18.3221 135.13 18.7372 135.218 19.1692L135.233 19.2395H135.156Z" fill="#A6A6A6"/>
<path d="M71.3794 25.7913C71.8221 25.3346 72.2107 24.8277 72.5375 24.2808C72.8609 23.7185 73.1131 23.1176 73.2881 22.4921C73.6519 21.1993 73.6519 19.8302 73.2881 18.5375C73.1131 17.912 72.8609 17.311 72.5375 16.7488C71.8901 15.6385 70.9721 14.7131 69.8706 14.0605C69.319 13.7384 68.7309 13.4844 68.1192 13.3038C66.5412 12.8434 64.8536 12.9501 63.3449 13.6054C62.7099 13.8966 62.1173 14.2736 61.5833 14.7261L61.4879 14.8066V14.0058C61.499 13.9066 61.4878 13.8061 61.455 13.7118C61.4222 13.6176 61.3687 13.5321 61.2986 13.4615C61.2283 13.391 61.1433 13.3374 61.0497 13.3047C60.956 13.272 60.8563 13.261 60.7579 13.2726H59.6333C59.5339 13.2607 59.4331 13.2712 59.3382 13.3034C59.2433 13.3357 59.1567 13.3889 59.0848 13.4591C59.0129 13.5293 58.9575 13.6149 58.9225 13.7095C58.8875 13.8041 58.874 13.9053 58.8827 14.0058V31.2642C58.8796 31.3597 58.8956 31.4549 58.9297 31.544C58.9638 31.6332 59.0154 31.7145 59.0813 31.7831C59.1473 31.8518 59.2263 31.9064 59.3136 31.9436C59.4008 31.9809 59.4947 32.0001 59.5894 32H60.7372C60.9391 32.0061 61.1354 31.9324 61.284 31.7946C61.3512 31.7264 61.4038 31.645 61.4389 31.5557C61.4739 31.4663 61.4906 31.3707 61.4879 31.2746V26.2307L61.5833 26.3113C62.1098 26.7581 62.6958 27.1283 63.3243 27.4111C64.8321 28.0663 66.5189 28.1729 68.096 27.7127C68.7166 27.5363 69.3128 27.2821 69.8706 26.9561C70.4214 26.6353 70.9286 26.2438 71.3794 25.7913ZM67.9671 25.0685C67.3959 25.3365 66.7735 25.4753 66.1435 25.4753C65.5135 25.4753 64.8911 25.3365 64.3199 25.0685C63.7463 24.8083 63.2313 24.4333 62.8059 23.9662C62.369 23.5043 62.0194 22.966 61.7741 22.3777C61.5265 21.7819 61.399 21.1425 61.399 20.4965C61.399 19.8507 61.5265 19.2113 61.7741 18.6155C62.0231 18.0377 62.3725 17.5095 62.8059 17.0556C63.2395 16.6033 63.7529 16.2365 64.3199 15.974C64.8909 15.7069 65.5127 15.5685 66.1421 15.5685C66.7716 15.5685 67.3935 15.7069 67.9644 15.974C68.5231 16.2393 69.0291 16.6049 69.4579 17.0529C69.884 17.5084 70.2263 18.0366 70.469 18.6129C70.7179 19.2078 70.8462 19.847 70.8462 20.4927C70.8462 21.1384 70.7179 21.7775 70.469 22.3725C70.2215 22.9577 69.8789 23.4972 69.4553 23.9688C69.0347 24.4292 68.5292 24.8027 67.9671 25.0685Z" fill="#A6A6A6"/>
<path d="M78.4649 13.2935H77.3404C77.2397 13.2811 77.1377 13.2919 77.0418 13.3248C76.9459 13.3578 76.8585 13.4122 76.7864 13.4839C76.7143 13.5557 76.6591 13.6429 76.6251 13.7391C76.591 13.8353 76.5789 13.9381 76.5898 14.0396V31.2746C76.5875 31.3706 76.6043 31.4661 76.6393 31.5555C76.6743 31.6447 76.7268 31.7261 76.7936 31.7946C76.8596 31.8609 76.9381 31.9132 77.0244 31.9485C77.1108 31.9838 77.2033 32.0013 77.2965 32H78.4417C78.6436 32.0061 78.8398 31.9323 78.9885 31.7946C79.0562 31.7267 79.1091 31.6455 79.1442 31.556C79.1793 31.4666 79.1956 31.3707 79.1923 31.2746V26.2307L79.2878 26.3113C79.8151 26.7587 80.4016 27.1289 81.0317 27.4111C82.5389 28.0665 84.2262 28.1731 85.8031 27.7127C86.4238 27.5358 87.0198 27.2816 87.5778 26.9561C88.1278 26.6295 88.6349 26.2338 89.0865 25.7783C89.5285 25.3216 89.9158 24.8147 90.242 24.2678C90.5651 23.7055 90.8174 23.1046 90.9928 22.4791C91.3587 21.1867 91.3587 19.8168 90.9928 18.5245C90.8182 17.8988 90.5658 17.2978 90.242 16.7358C89.596 15.6251 88.6785 14.6995 87.5778 14.0475C87.0246 13.7259 86.4357 13.4719 85.8238 13.2908C84.246 12.8307 82.5579 12.9373 81.0492 13.5924C80.4143 13.8836 79.8214 14.2606 79.2878 14.713L79.1846 14.8196V14.0396C79.1975 13.9403 79.1881 13.8394 79.1568 13.7443C79.1255 13.6493 79.0733 13.5626 79.0041 13.4908C78.9348 13.419 78.8504 13.3639 78.757 13.3298C78.6636 13.2955 78.5637 13.2831 78.4649 13.2935ZM79.4809 18.6337C79.7309 18.0562 80.0801 17.528 80.5127 17.0738C80.9444 16.6186 81.4563 16.2483 82.0214 15.9818C82.5928 15.7147 83.2143 15.5763 83.8444 15.5763C84.4738 15.5763 85.0952 15.7147 85.6666 15.9818C86.2325 16.2463 86.7452 16.6128 87.1801 17.0634C87.6063 17.5188 87.9492 18.0471 88.1912 18.6233C88.4412 19.2181 88.5698 19.8573 88.5698 20.5031C88.5698 21.1488 88.4412 21.788 88.1912 22.3828C87.9468 22.9703 87.6039 23.5111 87.1778 23.9818C86.7571 24.4418 86.2516 24.8153 85.6897 25.0815C85.1174 25.3488 84.4952 25.4872 83.8651 25.4872C83.2341 25.4872 82.6119 25.3488 82.0397 25.0815C81.4674 24.8203 80.9532 24.4454 80.5285 23.9792C80.0912 23.5177 79.7412 22.9793 79.4968 22.3907C79.2475 21.7966 79.1179 21.1587 79.1152 20.5137C79.1126 19.8688 79.237 19.2298 79.4809 18.6337Z" fill="#A6A6A6"/>
<path d="M120.711 13.8264C120.722 13.7255 120.709 13.6236 120.675 13.5283C120.64 13.4331 120.585 13.3469 120.513 13.2763C120.441 13.2057 120.353 13.1526 120.257 13.1209C120.162 13.0891 120.06 13.0797 119.96 13.0932H118.829C118.73 13.0816 118.63 13.0926 118.537 13.1253C118.443 13.1579 118.358 13.2115 118.287 13.2821C118.218 13.3526 118.164 13.4381 118.131 13.5324C118.099 13.6267 118.087 13.7271 118.099 13.8264V22.0994C118.108 22.5841 118.003 23.0643 117.794 23.5007C117.614 23.8999 117.35 24.2549 117.021 24.5407C116.699 24.8084 116.335 25.0202 115.945 25.1673C115.506 25.3309 115.041 25.4029 114.574 25.3787C114.107 25.3546 113.65 25.2349 113.231 25.0269C112.834 24.8196 112.49 24.5224 112.226 24.1585C111.962 23.8123 111.775 23.4134 111.676 22.9886C111.568 22.5565 111.511 22.1132 111.506 21.6678V14.0395C111.518 13.7901 111.46 13.5422 111.338 13.3246C111.246 13.2295 111.134 13.1568 111.01 13.1118C110.887 13.0667 110.755 13.0506 110.624 13.0646H109.809C109.687 13.0605 109.566 13.0815 109.453 13.1262C109.34 13.1709 109.237 13.2384 109.151 13.3246C109.06 13.4262 108.991 13.545 108.947 13.674C108.903 13.8031 108.884 13.9397 108.893 14.0759V21.6912C108.883 22.523 109.007 23.3508 109.26 24.1429C109.497 24.8807 109.872 25.5655 110.366 26.1605C110.859 26.7427 111.476 27.2049 112.172 27.5124C113.38 28.0092 114.708 28.1367 115.989 27.8791C116.334 27.7951 116.672 27.6793 116.997 27.5332C117.3 27.3915 117.581 27.2058 117.83 26.982L118.008 26.8156L118.106 26.7195V27.2992C118.104 27.3847 118.118 27.4697 118.149 27.5492C118.181 27.6287 118.227 27.7011 118.287 27.762C118.355 27.8474 118.442 27.9153 118.541 27.9605C118.64 28.0056 118.749 28.0267 118.856 28.022H120.002C120.095 28.0239 120.187 28.007 120.274 27.9722C120.36 27.9373 120.439 27.8853 120.505 27.8192C120.577 27.7547 120.633 27.6742 120.669 27.5839C120.705 27.4936 120.719 27.3961 120.711 27.2992V13.8264Z" fill="#A6A6A6"/>
<path d="M149.504 21.9227C149.265 21.4201 148.921 20.9763 148.493 20.6228C148.025 20.2385 147.504 19.9258 146.945 19.6946C146.314 19.4303 145.66 19.2266 144.991 19.0862C144.664 19.0117 144.343 18.9135 144.031 18.7924C143.748 18.6886 143.48 18.5507 143.231 18.3817C142.895 18.1771 142.634 17.8677 142.488 17.5002C142.403 17.2305 142.403 16.9407 142.488 16.6709C142.579 16.3667 142.96 15.5295 144.436 15.4359C145.847 15.3475 146.556 16.0937 146.801 16.4265C146.837 16.4733 147.183 16.9231 147.43 17.2065C147.475 17.2471 147.525 17.2821 147.577 17.3105C147.679 17.35 147.788 17.3633 147.896 17.3493C148.003 17.3352 148.106 17.2941 148.194 17.2298L149.056 16.5851C149.149 16.5287 149.226 16.4487 149.28 16.353C149.334 16.2573 149.363 16.1491 149.362 16.0391V16.0131C149.325 15.846 149.258 15.6868 149.166 15.5425C148.912 15.1748 148.636 14.8224 148.34 14.4869C148.078 14.1748 147.77 13.904 147.428 13.6836C147.072 13.4617 146.687 13.2943 146.283 13.1869C145.132 12.8931 143.921 12.9401 142.795 13.3221C142.227 13.4933 141.7 13.781 141.248 14.1671C140.815 14.5289 140.469 14.9837 140.234 15.4983C140 16.0133 139.875 16.5717 139.867 17.1378C139.86 17.7041 139.968 18.2657 140.187 18.7872C140.399 19.2608 140.712 19.6817 141.103 20.0196C141.525 20.3836 141.988 20.6952 142.483 20.9477C143.064 21.2226 143.668 21.4437 144.289 21.6081C144.471 21.6497 144.655 21.6992 144.846 21.7512C145.037 21.8032 145.222 21.8525 145.41 21.8967C145.744 21.978 146.067 22.0984 146.373 22.2555C146.629 22.3792 146.857 22.5564 147.041 22.7755C147.202 23.0139 147.285 23.2966 147.28 23.5847C147.275 23.8729 147.182 24.1524 147.013 24.3849C146.825 24.627 146.594 24.8316 146.332 24.9881C146.063 25.1455 145.774 25.2645 145.472 25.3417C144.964 25.4574 144.434 25.4574 143.925 25.3417C143.658 25.272 143.398 25.1744 143.152 25.0505C142.902 24.9245 142.668 24.7673 142.457 24.5824C142.265 24.3667 142.098 24.1294 141.96 23.8753C141.894 23.7239 141.797 23.5889 141.673 23.4801C141.575 23.3976 141.455 23.346 141.328 23.3317C141.201 23.3173 141.073 23.3409 140.959 23.3995L139.927 23.8909C139.84 23.928 139.76 23.9809 139.692 24.0469C139.637 24.1032 139.591 24.1693 139.558 24.2419C139.518 24.3453 139.51 24.4583 139.533 24.5668C139.543 24.676 139.57 24.7831 139.613 24.8841C139.791 25.3556 140.044 25.7946 140.363 26.1841C140.717 26.6088 141.148 26.9617 141.632 27.224C142.084 27.4965 142.577 27.694 143.092 27.809C144.275 28.0913 145.51 28.0518 146.672 27.6946C147.286 27.5219 147.86 27.2285 148.361 26.8314C148.844 26.4636 149.233 25.9838 149.494 25.4326C149.749 24.8837 149.883 24.2851 149.884 23.6789C149.886 23.0725 149.756 22.4732 149.504 21.9227Z" fill="#A6A6A6"/>
</g>
<defs>
<clipPath id="clip0_101_265">
<rect width="150" height="32" fill="white"/>
</clipPath>
</defs>
</svg>
