<svg width="71" height="32" viewBox="0 0 71 32" fill="none" xmlns="http://www.w3.org/2000/svg">
<g clip-path="url(#clip0_101_279)">
<path fill-rule="evenodd" clip-rule="evenodd" d="M12.3995 13.8849C12.1701 13.6806 11.8498 13.6122 11.5566 13.7048L3.58007 16.2218L14.9777 5.31928C15.3287 4.98283 15.3405 4.42522 15.0045 4.07392C14.9881 4.0571 14.9718 4.04077 14.954 4.02543L10.6991 0.223551C10.3358 -0.100529 9.77917 -0.0683683 9.45536 0.294799C9.41827 0.336856 9.38516 0.381881 9.35652 0.429874L0.0952255 15.9822C-0.0708609 16.2613 -0.0159931 16.6195 0.22671 16.8358L2.03141 18.4507C2.25336 18.6486 2.56032 18.7204 2.84702 18.6407L9.30906 16.8397L1.87126 28.5269C1.5124 29.0914 2.25682 29.703 2.73975 29.2398L15.1651 17.3286C15.4345 17.0688 15.4424 16.6394 15.1824 16.3697C15.171 16.3578 15.1591 16.3464 15.1468 16.335L12.3995 13.8849Z" fill="#A6A6A6"/>
<path fill-rule="evenodd" clip-rule="evenodd" d="M70.4085 12.2182L69.1745 11.1178C69.007 10.9683 68.7501 10.9828 68.6004 11.1502C68.567 11.1882 68.5401 11.232 68.5227 11.2799L65.985 18.1254C64.7695 21.4049 63.3286 22.5276 62.4249 22.5276C62.1361 22.5276 61.7251 22.3177 61.7251 21.6182C61.7251 21.3805 61.767 20.8779 62.0613 20.0838L64.4787 13.5667C64.6553 13.0911 64.5221 12.5562 64.1435 12.2186L62.9091 11.1178C62.7416 10.9683 62.4847 10.9828 62.335 11.1502C62.3016 11.1882 62.2747 11.232 62.2573 11.2799L59.7201 18.1254C58.5051 21.4049 57.0637 22.5276 56.1609 22.5276C55.8717 22.5276 55.4606 22.3177 55.4606 21.6182C55.4606 21.3805 55.5031 20.8779 55.7963 20.0838L61.0757 5.83329C61.2523 5.35817 61.1191 4.82323 60.7411 4.48522L59.5061 3.38443C59.339 3.23487 59.0821 3.24982 58.9325 3.41683C58.8986 3.45472 58.8722 3.4991 58.8542 3.54646L53.4512 18.1254C53.0671 19.1609 52.8876 20.2138 52.8876 20.827C52.8876 22.901 54.2876 24.0915 55.7959 24.0915C56.9265 24.0915 58.1749 23.3682 59.3056 21.879C59.6926 23.2914 60.8353 24.0915 62.0608 24.0915C62.7436 24.0915 63.4707 23.8248 64.1894 23.2898L62.4123 28.0809C60.575 27.2104 58.4777 27.0609 56.5355 27.6631C56.2986 27.7354 56.3475 28.0809 56.5919 28.1048C59.1201 28.3426 61.2004 29.4354 62.7361 31.489C63.0119 31.8549 63.5321 31.9282 63.8977 31.6525C64.0244 31.5573 64.1211 31.4282 64.1759 31.2796L70.7422 13.5687C70.9197 13.0926 70.7875 12.5566 70.4085 12.2182Z" fill="#A6A6A6"/>
<path fill-rule="evenodd" clip-rule="evenodd" d="M43.9253 22.5173C43.4302 22.5173 43.0611 22.0306 43.0611 21.3057C43.0611 21.0634 43.1366 20.4863 43.4332 19.6776C45.1299 15.2513 47.4386 12.8489 48.474 12.8489C49.1579 12.8489 49.2622 13.5607 49.2622 14.4085C49.2622 17.8635 46.1805 22.5148 43.9253 22.5148V22.5173ZM49.4183 10.7834C48.197 10.7834 47.0613 11.4849 46.046 12.5558L48.6381 5.5047C48.8164 5.02007 48.6819 4.47498 48.3002 4.13106L47.0508 3.00887C46.8821 2.85647 46.6221 2.87121 46.4716 3.0419C46.4373 3.0805 46.4107 3.12521 46.3926 3.17398L40.9368 18.0291C40.549 19.0847 40.3682 20.1571 40.3682 20.782C40.3682 22.7936 41.7768 24.1084 43.6916 24.1084C48.2096 24.1084 52.2864 18.7515 52.2864 14.4308C52.2839 12.315 51.2651 10.7834 49.4183 10.7834Z" fill="#A6A6A6"/>
<path fill-rule="evenodd" clip-rule="evenodd" d="M32.3823 22.5173C31.8866 22.5173 31.517 22.0306 31.517 21.3057C31.517 21.0634 31.5926 20.4863 31.8896 19.6776C33.5885 15.2513 35.9001 12.8489 36.9369 12.8489C37.6222 12.8489 37.7266 13.5607 37.7266 14.4085C37.7256 17.8635 34.6429 22.5148 32.3818 22.5148L32.3823 22.5173ZM34.5063 12.5558L37.1013 5.5047C37.2798 5.02007 37.1456 4.47498 36.7629 4.13106L35.5123 3.00887C35.3429 2.85647 35.0832 2.87121 34.9319 3.0419C34.8976 3.0805 34.8709 3.12521 34.8532 3.17398L29.39 18.0291C28.1596 21.3702 26.7037 22.5148 25.79 22.5148C25.4975 22.5148 25.0825 22.3014 25.0825 21.5881C25.0825 21.3458 25.1249 20.8338 25.4223 20.0245L27.8646 13.3839C28.0436 12.8997 27.9089 12.3541 27.5267 12.0097L26.2781 10.888C26.1092 10.7361 25.849 10.7508 25.6982 10.9211C25.6639 10.9602 25.6372 11.0044 25.6191 11.0536L23.0533 18.0291C21.8249 21.3708 20.3675 22.5148 19.4543 22.5148C19.1618 22.5148 18.7463 22.3014 18.7463 21.5881C18.7463 21.3458 18.7887 20.8338 19.0857 20.0245L21.5279 13.3839C21.7064 12.8997 21.5717 12.3547 21.1885 12.0102L19.941 10.8885C19.772 10.7367 19.5123 10.7514 19.361 10.9216C19.3267 10.9602 19.3 11.0054 19.2819 11.0541L16.7172 18.0291C16.3294 19.0847 16.1473 20.1571 16.1473 20.782C16.1473 22.8958 17.5623 24.1084 19.0872 24.1084C20.2304 24.1084 21.4926 23.3712 22.6358 21.8544C23.0271 23.2936 24.1824 24.1084 25.4208 24.1084C26.5676 24.1084 27.8358 23.3672 28.9785 21.8412C29.388 23.2366 30.5931 24.1084 32.1438 24.1084C36.6686 24.1084 40.7527 18.7515 40.7527 14.4308C40.7517 12.315 39.7315 10.7834 37.8829 10.7834C36.6596 10.7834 35.5224 11.4849 34.5063 12.5558Z" fill="#A6A6A6"/>
</g>
<defs>
<clipPath id="clip0_101_279">
<rect width="71" height="32" fill="white"/>
</clipPath>
</defs>
</svg>
