<svg width="134" height="32" viewBox="0 0 134 32" fill="none" xmlns="http://www.w3.org/2000/svg">
<g clip-path="url(#clip0_101_290)">
<path d="M123.064 22.1798C117.1 22.1798 112.248 17.3344 112.248 11.3787V0.577637H133.88V11.3787C133.88 17.3337 129.027 22.1798 123.064 22.1798ZM114.215 2.54146V11.3787C114.215 16.2509 118.184 20.2159 123.064 20.2159C127.943 20.2159 131.913 16.2516 131.913 11.3787V2.54146H114.215Z" fill="#A6A6A6"/>
<path d="M127.981 7.12354H118.148V9.08737H119.492L118.811 14.5291H120.793L121.475 9.08737H124.654L125.336 14.5291H127.317L126.637 9.08737H127.981V7.12354Z" fill="#A6A6A6"/>
<path d="M11.603 3.82305C17.4049 3.82305 20.4995 6.52659 20.4995 10.3888C20.4995 13.4792 18.1784 15.7965 15.0843 16.6468V16.7241C19.9193 17.9214 21.6596 20.7408 21.6596 23.7153C21.6596 27.9638 18.5651 30.861 12.7639 30.861H0V30.0887C2.32112 30.0887 2.32112 30.0887 2.32112 27.5775V7.10592C2.32112 4.59483 2.32112 4.59483 0 4.59483V3.82239H11.603V3.82305ZM9.28254 16.569C12.7639 16.569 14.1168 14.2517 14.1168 10.5819C14.1168 7.29837 12.7632 4.59483 10.4428 4.59483H8.50905V16.569H9.28254ZM8.50905 17.3414V30.0887H11.2163C14.3102 30.0887 15.2777 26.9983 15.2777 23.5223C15.2777 20.0463 13.5374 17.3421 10.056 17.3421H8.50905V17.3414Z" fill="#A6A6A6"/>
<path d="M23.2041 21.3976C23.2041 14.8312 28.6193 11.1615 33.4535 11.1615C37.9018 11.1615 41.9239 13.0926 40.7636 19.659H29.3154C29.3154 24.8736 32.2933 26.8047 35.1945 26.8047C38.6759 26.8047 40.2229 24.8736 40.9964 23.5212H41.383C40.6096 27.3834 37.9018 31.2462 33.0675 31.2462C26.6855 31.2468 23.2041 26.6123 23.2041 21.3976ZM29.3154 18.8865H35.0012C35.6586 16.2603 36.2001 11.9339 33.2608 11.9339C31.0557 11.9339 29.4701 13.9815 29.3154 18.8865Z" fill="#A6A6A6"/>
<path d="M57.2388 16.569C57.2388 14.831 56.0786 14.2517 54.9184 14.2517C53.7195 14.2517 52.4045 14.831 51.0509 15.9897V27.5769C51.0509 30.088 51.0509 30.088 53.3714 30.088V30.8605H42.5413V30.088C44.8617 30.088 44.8617 30.088 44.8617 27.5769V15.4103C44.8617 13.4792 44.8617 13.4792 42.9279 13.4792V12.8999L50.8569 11.1619H51.1663L51.0503 15.2172H51.1277C52.5973 12.7068 55.3824 11.1619 58.2057 11.1619C60.7969 11.1619 63.4274 12.7068 63.4274 16.9559V27.5783C63.4274 30.0893 63.4274 30.0893 65.7478 30.0893V30.8617H55.6918V30.0893C57.2388 30.0893 57.2388 30.0893 57.2388 27.5783V16.569Z" fill="#A6A6A6"/>
<path d="M78.5092 26.8053C81.9906 26.8053 83.5375 24.8743 84.311 23.5218H84.6984C83.9243 27.384 81.2171 31.2468 76.3821 31.2468C70.0001 31.2468 66.5194 26.6123 66.5194 21.3976C66.5194 14.8312 71.9346 11.1615 76.7689 11.1615C81.6038 11.1615 84.1569 13.5181 84.1569 15.9898C84.1569 17.341 83.5382 18.6934 81.2177 18.6934C79.284 18.6934 78.8579 17.4961 78.8965 16.6851C79.0907 13.865 78.8965 11.9339 76.5761 11.9339C73.8689 11.9339 72.6307 15.5264 72.6307 20.0066C72.6307 25.0673 75.6086 26.8053 78.5092 26.8053Z" fill="#A6A6A6"/>
<path d="M100.554 16.569C100.554 14.831 99.3941 14.2517 98.2337 14.2517C97.0347 14.2517 95.7197 14.831 94.3662 15.9897V27.577C94.3662 30.088 94.3662 30.088 96.6873 30.088V30.8605H85.8571V30.088C88.1782 30.088 88.1782 30.088 88.1782 27.577V5.36797C88.1782 3.43622 88.1782 3.43622 86.2445 3.43622V2.85688L94.0574 1.1189H94.3667V15.2172H94.4441C95.9138 12.7068 98.6979 11.1619 101.523 11.1619C104.114 11.1619 106.744 12.7068 106.744 16.9559V27.5782C106.744 30.0894 106.744 30.0894 109.065 30.0894V30.8618H99.0076V30.0894C100.554 30.0894 100.554 30.0894 100.554 27.5782V16.569Z" fill="#A6A6A6"/>
</g>
<defs>
<clipPath id="clip0_101_290">
<rect width="134" height="32" fill="white"/>
</clipPath>
</defs>
</svg>
