<svg width="150" height="32" viewBox="0 0 150 32" fill="none" xmlns="http://www.w3.org/2000/svg">
<g clip-path="url(#clip0_101_304)">
<path d="M20.9166 17.8221C20.8655 17.8827 20.8166 17.9457 20.7624 18.0027L20.7614 18.0146L15.664 23.7166L15.6555 23.7142C15.3173 24.0951 14.9148 24.3973 14.4715 24.6033C14.0283 24.8094 13.5529 24.9153 13.0728 24.9148H8.05521C7.95575 24.9146 7.85723 24.9364 7.76529 24.9788C7.67336 25.0213 7.58981 25.0836 7.51943 25.1623C7.44904 25.2408 7.39321 25.3342 7.35512 25.437C7.31702 25.5397 7.29741 25.6498 7.29741 25.7611V30.7725L7.28147 30.7736C7.25429 30.9581 7.18217 31.1307 7.07305 31.2723C6.96392 31.414 6.822 31.5193 6.66287 31.5766C6.50374 31.634 6.33355 31.6412 6.171 31.5975C6.00845 31.5537 5.85982 31.4607 5.74142 31.3288L5.73824 31.3311L1.11492 26.1629L1.11916 26.1546C0.76516 25.7749 0.483511 25.3191 0.291174 24.8145C0.098837 24.3099 -0.000208383 23.7671 3.29168e-07 23.2185V10.2872C3.29168e-07 9.19124 0.387935 8.19871 1.01713 7.46531L1.01501 7.45818L6.2569 1.59573L6.25902 1.59692C6.9393 0.850319 7.85457 0.432417 8.80769 0.433229H13.0728C13.6171 0.433229 14.1314 0.569924 14.5938 0.808844V0.799334C14.9892 1.00497 15.3484 1.28193 15.6502 1.62188L15.6566 1.61832L21.8784 8.57671L21.8795 16.7392H29.1599V29.4221C29.162 29.4293 29.162 29.4376 29.162 29.4459V29.7324C29.13 30.2472 28.9246 30.7292 28.5873 31.0812C28.25 31.4333 27.8059 31.6292 27.3446 31.6295H23.6958C23.4438 31.6293 23.1946 31.5707 22.9638 31.4573C22.7331 31.344 22.5258 31.1784 22.3551 30.971C22.1845 30.7636 22.0541 30.5189 21.9722 30.2523C21.8904 29.9857 21.8587 29.7031 21.8795 29.4221V16.7392L20.9166 17.8221ZM13.836 16.7487C13.9354 16.7489 14.0339 16.7271 14.1258 16.6846C14.2178 16.6421 14.3013 16.5799 14.3717 16.5012C14.4421 16.4227 14.498 16.3293 14.536 16.2265C14.5742 16.1238 14.5938 16.0137 14.5938 15.9023V9.44324C14.5938 9.33199 14.5742 9.22185 14.536 9.11909C14.498 9.01633 14.4421 8.92298 14.3717 8.84437C14.3013 8.76577 14.2178 8.70346 14.1258 8.66099C14.0339 8.61853 13.9354 8.59676 13.836 8.59692V8.59572H8.05415C7.85335 8.59572 7.66076 8.68485 7.51868 8.84353C7.37659 9.00222 7.29663 9.21747 7.29635 9.44204V15.9C7.29635 16.3684 7.63539 16.7464 8.05415 16.7464H13.8338L13.836 16.7487Z" fill="#A6A6A6"/>
<path d="M21.8838 16.7478H29.1642L21.8838 8.58765V16.7478Z" fill="#A6A6A6"/>
<path d="M39.4844 7.23225H46.2216C48.9744 7.23225 51.4167 7.23225 52.8878 9.59411C53.5286 10.6556 53.8369 12.1675 53.8369 13.4406C53.8369 14.4747 53.6466 15.4839 53.2672 16.3587C51.8207 19.7025 48.7363 19.7821 46.4587 19.8343H43.6836V25.9631H39.4844V7.23225ZM43.6858 10.6818V16.3587H46.2026C47.7702 16.3587 49.6695 16.3065 49.6695 13.4145C49.6695 10.6806 47.5555 10.6806 46.3449 10.6806L43.6858 10.6818ZM58.8683 13.544C59.675 12.7738 60.5529 12.164 62.4501 11.9512V15.56L61.2405 15.7716C59.4858 16.1162 58.9629 16.4087 58.9629 18.1596V25.9595H55.31V12.0843H58.8683V13.544ZM76.7069 19.0059C76.7069 22.5089 74.9043 26.3554 70.0642 26.3554C66.5771 26.3554 63.3981 24.1266 63.3981 19.0059C63.3981 14.7612 65.7938 11.3914 70.5393 11.6837C75.592 12.0023 76.7069 16.486 76.7069 19.0059ZM67.6919 16.2755C67.2413 17.072 67.0755 18.0289 67.0755 18.9857C67.0755 21.1906 68.0236 23.1305 70.0642 23.1305C72.0336 23.1305 73.0062 21.3499 73.0062 19.1723C73.0062 17.6306 72.6735 16.4349 71.9858 15.6907C71.227 14.8943 70.3724 14.867 69.8506 14.9205C68.8069 15.0001 68.1904 15.3984 67.693 16.2755H67.6919ZM79.6733 10.7269C79.6733 10.0375 79.72 9.10795 80.1941 8.36504C80.6458 7.67562 81.6651 6.95886 83.374 6.95886C84.1095 6.95886 84.8451 7.09199 85.556 7.19659V10.2491H84.6782C83.3028 10.2491 83.2317 10.5676 83.2551 12.4243H85.6985V14.9181H83.2784V25.9559H79.6488V14.9181H77.7038V12.4243H79.6733V10.7269Z" fill="#A6A6A6"/>
<path d="M87.5247 10.3654H91.129V7.20837H87.5247V10.3654ZM87.5247 25.9665H91.129V12.0902H87.5247V25.9665Z" fill="#A6A6A6"/>
<path d="M94.8539 8.09985H98.4833V12.4242H100.88V14.918H98.4599V21.1537C98.4365 22.0024 98.4365 22.7191 99.4094 22.7191L100.713 22.6656V25.8489C99.9313 25.982 99.4562 26.0616 98.7929 26.0616C97.5339 26.0616 96.1588 25.982 95.3758 24.7077C94.8781 23.8864 94.8547 22.9046 94.8547 21.578V14.8919H93.0513V12.398H94.8539V8.09985Z" fill="#A6A6A6"/>
<path d="M114.585 7.23254C115.085 9.2485 115.581 11.2656 116.126 13.2828C117.053 16.8903 117.218 17.474 117.74 21.1089C118.238 17.3944 118.357 16.7585 119.116 12.9369C119.472 11.0268 119.851 9.11656 120.207 7.23254H124.359L120.113 25.9634H115.795C115.274 23.8951 114.774 21.8244 114.229 19.7824C113.327 16.3329 113.279 16.1997 112.781 13.574C112.355 15.8823 112.307 16.0678 111.358 19.6492L109.744 25.9634H105.427L101.181 7.23254H105.357C107.16 16.1201 107.35 17.1019 107.847 21.1612C108.464 17.4478 108.631 16.7311 109.509 13.0165L110.884 7.23254H114.585Z" fill="#A6A6A6"/>
<path d="M136.623 22.4378C136.196 23.1546 135.768 23.844 135.128 24.5073C134.06 25.6222 132.446 26.4709 130.455 26.4709C126.778 26.4709 124.192 23.844 124.192 19.3069C124.192 15.9644 125.663 11.6663 130.549 11.6663C131.285 11.6663 133.419 11.7459 135.009 13.6561C136.623 15.5935 136.718 18.2989 136.765 19.8644H127.917C127.893 21.5879 128.77 23.3139 130.74 23.3139C132.732 23.3139 133.42 21.8542 133.871 20.8724L136.623 22.4378ZM132.993 17.3052C132.922 16.7239 132.827 15.9584 132.304 15.351C131.853 14.8482 131.168 14.5844 130.526 14.5844C129.648 14.5844 129.032 15.0598 128.676 15.483C128.176 16.0904 128.059 16.7239 127.94 17.3052H132.993Z" fill="#A6A6A6"/>
<path d="M138.88 25.9634H142.533V7.23254H138.88V25.9634Z" fill="#A6A6A6"/>
<path d="M145.799 25.9634H149.452V7.23254H145.799V25.9634Z" fill="#A6A6A6"/>
</g>
<defs>
<clipPath id="clip0_101_304">
<rect width="150" height="32" fill="white"/>
</clipPath>
</defs>
</svg>
