<svg width="118" height="32" viewBox="0 0 118 32" fill="none" xmlns="http://www.w3.org/2000/svg">
<g clip-path="url(#clip0_101_276)">
<path d="M28.5717 8.00176C28.5714 8.0012 28.5709 8.00016 28.5704 7.9991C28.569 7.99725 28.5675 7.99487 28.5661 7.99302C28.5333 7.93816 28.4984 7.88514 28.4608 7.83343C28.4511 7.81998 28.4407 7.80731 28.4304 7.79386C28.4008 7.75508 28.3703 7.71736 28.3381 7.68069C28.3198 7.65985 28.3005 7.63954 28.2817 7.61949C28.2555 7.59258 28.2291 7.56594 28.2015 7.53982C28.1762 7.51608 28.1499 7.4926 28.1238 7.47044C28.0995 7.45013 28.0754 7.43034 28.0505 7.41082C28.0204 7.38708 27.9891 7.36466 27.9576 7.3425C27.9338 7.32614 27.9103 7.31006 27.8857 7.29422C27.8521 7.27312 27.8182 7.25307 27.7836 7.23382C27.7589 7.21983 27.7341 7.20638 27.7087 7.19346C27.6727 7.17525 27.6362 7.15784 27.5992 7.14202C27.574 7.13094 27.5489 7.11986 27.5229 7.10957C27.4833 7.094 27.4428 7.08002 27.4023 7.06657C27.379 7.05919 27.3561 7.05153 27.3325 7.04494C27.2854 7.03122 27.2375 7.01908 27.1894 7.00879C27.1724 7.00537 27.1558 7.00114 27.1388 6.99798C27.0793 6.98637 27.0187 6.97766 26.9587 6.97107C26.9523 6.97054 26.9467 6.96949 26.9407 6.96896C26.5108 6.92596 26.064 7.00774 25.661 7.2354L14.4274 13.5895L6.39362 9.04504L14.434 4.49664L19.7947 7.5269C20.8135 8.10224 22.1162 7.76088 22.7046 6.76294C23.293 5.76472 22.9437 4.48794 21.925 3.9118L15.4997 0.27956C14.8407 -0.0931868 14.0284 -0.0931868 13.3695 0.27956L1.11915 7.20875C0.783431 7.38629 0.490831 7.65194 0.286065 7.9991C-0.302574 8.9976 0.046376 10.2738 1.06518 10.8497L13.3629 17.8066C13.3647 17.8077 13.3663 17.8079 13.3679 17.809C13.4324 17.8451 13.4994 17.876 13.567 17.905C13.5859 17.9132 13.6039 17.9237 13.6226 17.9311C13.6634 17.9474 13.7057 17.9588 13.7472 17.9722C13.9698 18.0458 14.1983 18.0865 14.4258 18.0865C14.4264 18.0865 14.4272 18.0865 14.428 18.0865C14.4282 18.0865 14.429 18.0865 14.4298 18.0865C14.6624 18.0865 14.8962 18.0446 15.1229 17.9675C15.1592 17.9551 15.1965 17.9458 15.2322 17.9314C15.2537 17.923 15.2742 17.9108 15.2957 17.9015C15.3608 17.8734 15.4253 17.8438 15.4873 17.809C15.4891 17.8079 15.4909 17.8077 15.4928 17.8066L24.5991 12.6562V21.7527L14.4306 27.5038L4.26341 21.7527V16.0011C4.26341 14.8486 3.30942 13.9145 2.13346 13.9145C0.95698 13.9145 0.00325318 14.8486 0.00325318 16.0011V22.9575C0.00325318 23.703 0.408818 24.3915 1.06809 24.7642L13.3657 31.7209C13.6949 31.9069 14.0629 32 14.4306 32C14.7983 32 15.1663 31.9069 15.4957 31.7209L27.7939 24.7642C28.4531 24.3915 28.8587 23.703 28.8587 22.9575V9.04504C28.8587 8.66464 28.7534 8.30904 28.5717 8.00176Z" fill="#A6A6A6"/>
<path fill-rule="evenodd" clip-rule="evenodd" d="M39.9059 19.6785C40.6167 20.1392 41.3385 20.4808 42.0714 20.7037C42.8044 20.9266 43.5263 21.038 44.237 21.038C44.9478 21.038 45.5215 20.8746 45.9583 20.5477C46.3952 20.2208 46.6136 19.7974 46.6136 19.2774C46.6136 18.8465 46.4396 18.5085 46.0916 18.2634C45.7436 18.0183 45.3068 17.7991 44.7811 17.606C44.2555 17.4128 43.6891 17.216 43.082 17.0154C42.4749 16.8148 41.9085 16.5474 41.383 16.2131C40.8573 15.8788 40.4205 15.4368 40.0725 14.8871C39.7245 14.3373 39.5505 13.6168 39.5505 12.7253C39.5505 12.0419 39.6912 11.4179 39.9725 10.8533C40.2539 10.2888 40.6463 9.80211 41.1497 9.39355C41.6532 8.98499 42.2566 8.66923 42.9599 8.44643C43.6632 8.22355 44.4369 8.11211 45.2809 8.11211C45.9917 8.11211 46.6987 8.17899 47.402 8.31267C48.1054 8.44643 48.8124 8.65443 49.5231 8.93667V12.1904C48.8568 11.8042 48.1905 11.5182 47.5241 11.3324C46.8578 11.1468 46.199 11.0539 45.5474 11.0539C44.8663 11.0539 44.3147 11.2024 43.8927 11.4996C43.4708 11.7968 43.2597 12.1904 43.2597 12.6808C43.2597 13.0968 43.4337 13.4236 43.7817 13.6613C44.1297 13.8991 44.5627 14.1108 45.081 14.2965C45.5992 14.4822 46.1656 14.6753 46.7801 14.876C47.3946 15.0765 47.961 15.3476 48.4792 15.6894C48.9975 16.0311 49.4306 16.4805 49.7786 17.0376C50.1265 17.5948 50.3005 18.3265 50.3005 19.2328C50.3005 19.9312 50.1562 20.5737 49.8674 21.1606C49.5787 21.7475 49.1789 22.2488 48.668 22.6648C48.1572 23.0809 47.5464 23.404 46.8357 23.6344C46.1249 23.8646 45.3475 23.9797 44.5035 23.9797C42.9488 23.9797 41.4162 23.6455 39.9059 22.9769V19.6785ZM51.38 7.68869H55.0003V13.3493C55.9627 12.651 56.9771 12.3019 58.0431 12.3019C58.6206 12.3019 59.1537 12.4022 59.6423 12.6028C60.1309 12.8033 60.5529 13.0856 60.9083 13.4496C61.2637 13.8136 61.5414 14.2482 61.7412 14.7533C61.9411 15.2585 62.0411 15.8082 62.0411 16.4025V23.7124H58.4207V17.0711C58.4207 16.6105 58.2763 16.2316 57.9876 15.9345C57.6989 15.6374 57.3324 15.4888 56.8882 15.4888C56.2219 15.4888 55.5926 15.786 55.0003 16.3802V23.7124H51.38V7.68869ZM63.5203 12.5693H67.1406V23.7124H63.5203V12.5693ZM63.3426 9.60531C63.3426 9.01099 63.5277 8.53187 63.8979 8.16787C64.2681 7.80383 64.7493 7.62183 65.3416 7.62183C65.9042 7.62183 66.3744 7.80383 66.7519 8.16787C67.1295 8.53187 67.3183 9.01099 67.3183 9.60531C67.3183 10.1699 67.1295 10.6379 66.7519 11.0093C66.3744 11.3808 65.9042 11.5664 65.3416 11.5664C64.7493 11.5664 64.2681 11.3808 63.8979 11.0093C63.5277 10.6379 63.3426 10.1699 63.3426 9.60531ZM76.2826 18.1408C76.2826 17.3236 76.0789 16.6662 75.6718 16.1685C75.2646 15.6708 74.7352 15.422 74.0837 15.422C73.4322 15.422 72.8473 15.682 72.3291 16.202V20.0797C72.8473 20.5997 73.4322 20.8597 74.0837 20.8597C74.7352 20.8597 75.2646 20.6072 75.6718 20.102C76.0789 19.5968 76.2826 18.9432 76.2826 18.1408ZM68.7087 12.5693H72.3291V13.1711C73.173 12.5916 74.0393 12.3019 74.9277 12.3019C75.6681 12.3019 76.3492 12.4468 76.9711 12.7364C77.593 13.0262 78.126 13.4273 78.5703 13.9399C79.0144 14.4525 79.3587 15.0653 79.6031 15.7785C79.8478 16.4916 79.9698 17.2791 79.9698 18.1408C79.9698 19.0025 79.8478 19.79 79.6031 20.5032C79.3587 21.2163 79.0144 21.8292 78.5703 22.3417C78.126 22.8543 77.593 23.2555 76.9711 23.5452C76.3492 23.8349 75.6681 23.9797 74.9277 23.9797C74.0393 23.9797 73.173 23.69 72.3291 23.1106V28.5929H68.7087V12.5693ZM84.803 20.8597H87.1789C87.7418 20.8597 88.2042 20.6926 88.567 20.3583C88.9298 20.024 89.1116 19.5968 89.1116 19.0768C89.1116 18.5568 88.9298 18.1297 88.567 17.7954C88.2042 17.4611 87.7418 17.294 87.1789 17.294H84.803V20.8597ZM84.803 14.5305H86.868C87.3862 14.5305 87.816 14.3745 88.1564 14.0625C88.4969 13.7505 88.6675 13.3568 88.6675 12.8813C88.6675 12.391 88.4969 11.9936 88.1564 11.689C87.816 11.3844 87.3862 11.2322 86.868 11.2322H84.803V14.5305ZM81.2709 8.37955H87.5568C88.2377 8.37955 88.8596 8.48355 89.4225 8.69155C89.9854 8.89955 90.4734 9.18931 90.8879 9.56067C91.3025 9.93211 91.6247 10.3704 91.8543 10.8756C92.0839 11.3808 92.1987 11.9304 92.1987 12.5248C92.1987 13.2825 92.0209 13.9585 91.6653 14.5528C91.3105 15.1471 90.8218 15.5854 90.1999 15.8676C90.9996 16.1648 91.6175 16.6291 92.0544 17.2605C92.4913 17.892 92.7098 18.6163 92.7098 19.4334C92.7098 20.0574 92.591 20.6332 92.3542 21.1606C92.1174 21.688 91.7881 22.1412 91.3655 22.52C90.9438 22.8989 90.4407 23.1923 89.8554 23.4003C89.2702 23.6084 88.63 23.7124 87.934 23.7124H81.2709V8.37955ZM93.1451 18.1408C93.1451 17.2791 93.2926 16.4916 93.5892 15.7785C93.885 15.0653 94.2996 14.4525 94.833 13.9399C95.3664 13.4273 95.9986 13.0262 96.7321 12.7364C97.4649 12.4468 98.2685 12.3019 99.1416 12.3019C100.015 12.3019 100.819 12.4468 101.552 12.7364C102.285 13.0262 102.914 13.4273 103.44 13.9399C103.965 14.4525 104.376 15.0653 104.672 15.7785C104.968 16.4916 105.117 17.2791 105.117 18.1408C105.117 18.9877 104.968 19.7714 104.672 20.492C104.376 21.2126 103.965 21.8292 103.44 22.3417C102.914 22.8543 102.285 23.2555 101.552 23.5452C100.819 23.8349 100.015 23.9797 99.1416 23.9797C98.2685 23.9797 97.4649 23.8349 96.7321 23.5452C95.9986 23.2555 95.3664 22.8543 94.833 22.3417C94.2996 21.8292 93.885 21.2126 93.5892 20.492C93.2926 19.7714 93.1451 18.9877 93.1451 18.1408ZM96.8541 18.1408C96.8541 18.9877 97.0654 19.6674 97.4872 20.18C97.909 20.6926 98.4607 20.9488 99.1416 20.9488C99.8081 20.9488 100.356 20.6926 100.786 20.18C101.215 19.6674 101.43 18.9877 101.43 18.1408C101.43 17.294 101.215 16.6142 100.786 16.1016C100.356 15.5891 99.8081 15.3328 99.1416 15.3328C98.4607 15.3328 97.909 15.5891 97.4872 16.1016C97.0654 16.6142 96.8541 17.294 96.8541 18.1408ZM113.569 18.1408C113.569 17.3236 113.366 16.6662 112.959 16.1685C112.552 15.6708 112.023 15.422 111.371 15.422C110.719 15.422 110.135 15.682 109.616 16.202V20.0797C110.135 20.5997 110.719 20.8597 111.371 20.8597C112.023 20.8597 112.552 20.6072 112.959 20.102C113.366 19.5968 113.569 18.9432 113.569 18.1408ZM105.996 7.68869H109.616V13.1711C110.46 12.5916 111.327 12.3019 112.215 12.3019C112.956 12.3019 113.636 12.4468 114.258 12.7364C114.88 13.0262 115.414 13.4273 115.858 13.9399C116.302 14.4525 116.646 15.0653 116.89 15.7785C117.135 16.4916 117.257 17.2791 117.257 18.1408C117.257 19.0025 117.135 19.79 116.89 20.5032C116.646 21.2163 116.302 21.8292 115.858 22.3417C115.414 22.8543 114.88 23.2555 114.258 23.5452C113.636 23.8349 112.956 23.9797 112.215 23.9797C111.327 23.9797 110.46 23.69 109.616 23.1106V23.7124H105.996V7.68869Z" fill="#A6A6A6"/>
</g>
<defs>
<clipPath id="clip0_101_276">
<rect width="118" height="32" fill="white"/>
</clipPath>
</defs>
</svg>
