<svg width="41" height="20" viewBox="0 0 41 20" fill="none" xmlns="http://www.w3.org/2000/svg">
<path fill-rule="evenodd" clip-rule="evenodd" d="M8.59716 8.0007L14.0936 3.16118C14.5396 2.76522 14.5396 2.12529 14.0936 1.72933L12.4907 0.29547C12.0495 -0.0984901 11.3313 -0.0984901 10.8854 0.29547L0.676323 9.30857C0.23745 9.70853 0.23745 10.3485 0.676323 10.7424L10.822 19.7015C11.2656 20.0995 11.9861 20.0995 12.425 19.7015L14.0303 18.2677C14.4738 17.8737 14.4738 17.2318 14.0303 16.8378L8.53614 12.0003H39.073C39.7208 12.0003 40.2465 11.5523 40.2465 11.0004V9.0006C40.2465 8.44866 39.7208 8.0007 39.073 8.0007H8.59716Z" fill="black"/>
</svg>
