<svg width="228" height="724" viewBox="0 0 228 724" fill="none" xmlns="http://www.w3.org/2000/svg">
<path d="M213 275.126L202.401 280.018V285.085H213V298.596L172.176 298.596L172.176 278.853C172.176 273.301 173.457 269.011 176.019 265.983C178.543 262.955 182.134 261.44 186.793 261.44C189.744 261.44 192.326 262.003 194.539 263.129C196.713 264.216 198.441 265.808 199.722 267.905L213 259.868L213 275.126ZM192.151 285.085V278.853C192.151 277.378 191.724 276.252 190.87 275.476C189.977 274.66 188.754 274.253 187.201 274.253C185.687 274.253 184.522 274.66 183.707 275.476C182.853 276.252 182.426 277.378 182.426 278.853L182.426 285.085H192.151ZM172.176 254.122V219.587H182.426V240.611H187.434V221.509H197.684V240.611H202.75V219.063H213V254.122H172.176ZM213 181.821L207.235 183.859V199.175L213 201.272V215.132L172.176 197.894V184.034L213 167.436V181.821ZM197.567 195.681V187.179L185.629 191.372L197.567 195.681ZM172.176 144.614C172.176 140.149 173.011 136.247 174.68 132.908C176.349 129.569 178.737 126.987 181.843 125.162C184.91 123.338 188.482 122.425 192.559 122.425C196.674 122.425 200.265 123.357 203.333 125.221C206.4 127.084 208.788 129.744 210.496 133.199C212.165 136.616 213 140.595 213 145.138V162.842H172.176V144.614ZM202.517 144.264C202.517 141.818 201.624 139.877 199.838 138.441C198.052 136.965 195.665 136.228 192.675 136.228C189.647 136.228 187.22 137.023 185.396 138.615C183.571 140.168 182.658 142.265 182.658 144.905V149.331H202.517V144.264ZM172.176 77.4031L200.304 92.0206H213V105.532H200.595L172.176 120.44V106.988L187.9 98.7761L172.176 90.8558V77.4031Z" fill="black"/>
<path d="M96.1246 656.896C90.3892 667.845 87.5215 676.813 87.5215 683.8C87.5215 686.198 87.9908 688.128 88.9293 689.588C89.7635 691.048 91.067 691.777 92.8398 691.777C94.7168 691.777 96.2289 690.63 97.376 688.336C98.523 686.042 99.7744 682.392 101.13 677.387C102.903 671.339 104.676 666.333 106.448 662.371C108.117 658.304 110.724 654.81 114.269 651.89C117.711 648.971 122.247 647.511 127.878 647.511C136.429 647.511 143.155 650.848 148.056 657.521C152.853 664.091 155.251 672.694 155.251 683.331C155.251 690.526 154.261 697.409 152.279 703.978C150.194 710.548 147.17 716.388 143.207 721.497L125.219 712.738C128.556 707.941 131.163 702.935 133.04 697.721C134.812 692.403 135.699 687.398 135.699 682.705C135.699 679.994 135.282 677.856 134.448 676.292C133.509 674.623 132.205 673.789 130.537 673.789C128.451 673.789 126.835 674.988 125.688 677.387C124.541 679.681 123.29 683.331 121.934 688.336C120.161 694.28 118.441 699.181 116.772 703.04C114.999 706.898 112.392 710.287 108.951 713.207C105.51 716.023 101.026 717.43 95.4989 717.43C86.948 717.43 80.274 714.198 75.4772 707.732C70.576 701.267 68.1254 692.925 68.1254 682.705C68.1254 676.553 68.9597 670.504 70.6281 664.56C72.2966 658.512 74.7472 652.829 77.9799 647.511L96.1246 656.896ZM69.3768 561.867H154L154 589.71H140.235C150.037 595.445 155.043 604.465 155.251 616.77C155.251 625.947 152.332 633.299 146.492 638.826C140.548 644.248 132.675 646.959 122.872 646.959H69.3768V619.117H114.895C119.692 619.117 123.446 617.917 126.157 615.519C128.869 613.016 130.224 609.679 130.224 605.508C130.12 600.607 128.347 596.749 124.906 593.933C121.36 591.117 116.772 589.71 111.141 589.71H69.3768V561.867ZM68.2818 439.549C68.2818 430.372 71.2017 423.02 77.0414 417.494C82.881 411.967 90.7542 409.203 100.661 409.203H154V437.046H108.638C103.841 437.046 100.087 438.297 97.376 440.8C94.5604 443.303 93.1526 446.692 93.1526 450.967C93.2569 455.869 95.0818 459.779 98.6273 462.699C102.069 465.514 106.605 466.922 112.236 466.922H154V494.765H108.638C103.841 494.765 100.087 496.016 97.376 498.519C94.5604 501.022 93.1526 504.411 93.1526 508.686C93.2569 513.588 95.0818 517.498 98.6273 520.418C102.069 523.338 106.605 524.798 112.236 524.798H154V552.484H69.3768V524.798H83.2982C78.397 521.878 74.6951 518.124 72.1923 513.535C69.5853 508.843 68.2818 503.42 68.2818 497.268C68.2818 490.385 69.9503 484.493 73.2873 479.592C76.6242 474.691 81.2647 471.198 87.2087 469.112C80.9519 466.401 76.2593 462.542 73.1309 457.537C69.8982 452.427 68.2818 446.431 68.2818 439.549ZM68.2818 289.224C68.2818 280.047 71.2017 272.696 77.0414 267.169C82.881 261.642 90.7542 258.879 100.661 258.879H154V286.721H108.638C103.841 286.721 100.087 287.973 97.376 290.475C94.5604 292.978 93.1526 296.367 93.1526 300.643C93.2569 305.544 95.0818 309.454 98.6273 312.374C102.069 315.19 106.605 316.598 112.236 316.598H154V344.44H108.638C103.841 344.44 100.087 345.692 97.376 348.194C94.5604 350.697 93.1526 354.086 93.1526 358.362C93.2569 363.263 95.0818 367.173 98.6273 370.093C102.069 373.013 106.605 374.473 112.236 374.473H154V402.159H69.3768V374.473H83.2982C78.397 371.553 74.6951 367.799 72.1923 363.211C69.5853 358.518 68.2818 353.096 68.2818 346.943C68.2818 340.061 69.9503 334.169 73.2873 329.268C76.6242 324.366 81.2647 320.873 87.2087 318.787C80.9519 316.076 76.2593 312.218 73.1309 307.212C69.8982 302.103 68.2818 296.107 68.2818 289.224ZM68.2818 213.668C68.2818 201.989 70.9931 192.916 76.4157 186.451C81.734 179.986 89.2421 176.701 98.9402 176.597H154V203.97H144.458C151.654 209.601 155.251 218.1 155.251 229.467C155.251 238.435 152.853 245.526 148.056 250.74C143.155 255.849 136.742 258.404 128.816 258.404C120.787 258.404 114.53 255.641 110.046 250.114C105.562 244.483 103.268 236.453 103.163 226.025L103.163 203.97H102.225C98.1581 203.97 95.0297 205.378 92.8398 208.194C90.6499 210.905 89.555 214.867 89.555 220.081C89.555 223.627 90.1285 227.642 91.2756 232.126C92.4227 236.506 94.0911 240.937 96.281 245.421L77.5106 253.086C74.3822 246.204 72.0881 239.634 70.6281 233.377C69.0639 227.016 68.2818 220.446 68.2818 213.668ZM136.325 220.864C136.325 216.692 135.334 213.043 133.353 209.914C131.267 206.786 128.608 204.804 125.375 203.97H118.023V220.551C118.023 228.372 120.943 232.282 126.783 232.282C129.703 232.282 132.049 231.292 133.822 229.31C135.49 227.225 136.325 224.409 136.325 220.864ZM83.4546 141.948C78.5534 139.028 74.7993 135.274 72.1923 130.686C69.5853 125.993 68.2818 120.675 68.2818 114.731H93.7783C93.674 115.67 93.6219 117.078 93.6219 118.955C93.6219 125.524 95.1861 130.842 98.3145 134.909C101.339 138.976 105.51 141.323 110.828 141.948H154V169.791H69.3768V141.948H83.4546Z" fill="#FFA849"/>
<path d="M56 681.271L50.2345 683.309V698.625L56 700.722V714.582L15.1758 697.344L15.1758 683.484L56 666.886L56 681.271ZM40.5672 695.131V686.629L28.6286 690.822L40.5672 695.131ZM56 638.822L45.4008 643.714V648.781H56V662.292H15.1758L15.1758 642.549C15.1758 636.998 16.457 632.707 19.0194 629.679C21.543 626.651 25.1343 625.137 29.7933 625.137C32.744 625.137 35.3258 625.7 37.5388 626.825C39.713 627.913 41.4407 629.504 42.7219 631.601L56 623.564V638.822ZM35.1511 648.781V642.549C35.1511 641.074 34.724 639.948 33.8699 639.172C32.9769 638.356 31.754 637.949 30.201 637.949C28.6868 637.949 27.5221 638.356 26.7067 639.172C25.8526 639.948 25.4255 641.074 25.4255 642.549V648.781H35.1511ZM15.1758 617.818L15.1758 583.283H25.4255L25.4255 604.307H30.4339L30.4339 585.205H40.6836V604.307H45.7503V582.759H56L56 617.818H15.1758ZM15.1758 521.858L43.3043 536.475H56V549.986H43.5955L15.1758 564.895L15.1758 551.442L30.8998 543.231L15.1758 535.31L15.1758 521.858ZM14.3022 497.454C14.3022 493.183 15.2146 489.339 17.0394 485.923C18.8641 482.506 21.3877 479.847 24.6102 477.944C27.8327 476.003 31.4628 475.032 35.5005 475.032C39.5771 475.032 43.2461 476.003 46.5074 477.944C49.7686 479.847 52.3311 482.506 54.1946 485.923C56.0194 489.339 56.9318 493.183 56.9318 497.454C56.9318 501.724 56.0194 505.568 54.1946 508.984C52.3311 512.401 49.7686 515.08 46.5074 517.021C43.2461 518.924 39.5771 519.875 35.5005 519.875C31.4239 519.875 27.7744 518.924 24.552 517.021C21.3295 515.08 18.8253 512.401 17.0394 508.984C15.2146 505.568 14.3022 501.724 14.3022 497.454ZM25.542 497.279C25.542 498.832 25.9885 500.288 26.8815 501.647C27.7356 502.967 28.9197 504.034 30.4339 504.85C31.9481 505.626 33.6564 506.014 35.5588 506.014C37.4612 506.014 39.1889 505.626 40.7419 504.85C42.256 504.034 43.4596 502.967 44.3526 501.647C45.2455 500.288 45.692 498.832 45.692 497.279C45.692 495.726 45.265 494.309 44.4108 493.028C43.5178 491.746 42.2949 490.737 40.7419 489.999C39.1889 489.262 37.4612 488.893 35.5588 488.893C33.6564 488.893 31.9481 489.262 30.4339 489.999C28.8809 490.737 27.6774 491.746 26.8232 493.028C25.9691 494.309 25.542 495.726 25.542 497.279ZM39.053 456.055C40.9942 456.055 42.5861 455.472 43.8284 454.308C45.0708 453.143 45.692 451.745 45.692 450.115C45.692 448.523 45.0903 447.203 43.8867 446.154C42.6443 445.106 41.0331 444.582 39.053 444.582H15.1758L15.1758 431.071H39.053C42.6249 431.071 45.7697 431.867 48.4874 433.459C51.1663 435.012 53.2434 437.225 54.7188 440.098C56.1941 442.971 56.9318 446.329 56.9318 450.173C56.9318 454.016 56.1941 457.414 54.7188 460.364C53.2434 463.276 51.1663 465.547 48.4874 467.178C45.7697 468.77 42.6249 469.566 39.053 469.566H15.1758V456.055H39.053Z" fill="black"/>
</svg>
