<svg width="41" height="20" viewBox="0 0 41 20" fill="none" xmlns="http://www.w3.org/2000/svg">
<path fill-rule="evenodd" clip-rule="evenodd" d="M32.4682 12.0013L26.9717 16.8408C26.5282 17.2348 26.5282 17.8767 26.9717 18.2707L28.577 19.7045C29.0182 20.0985 29.7364 20.0985 30.1823 19.7045L40.3891 10.6934C40.8303 10.2935 40.8303 9.65353 40.3891 9.25957L30.2457 0.29847C29.8021 -0.0994901 29.0816 -0.0994901 28.6404 0.29847L27.0374 1.73233C26.5915 2.12829 26.5915 2.77022 27.0374 3.16418L32.5316 8.0017H1.99469C1.34459 8.0017 0.821228 8.44766 0.821228 9.0016V11.0014C0.821228 11.5513 1.34459 12.0013 1.99469 12.0013H32.4682Z" fill="black"/>
</svg>
