<svg width="152" height="16" viewBox="0 0 152 16" fill="none" xmlns="http://www.w3.org/2000/svg">
<path d="M1.96389 15.7112H7.85556V10.3105H5.89167V7.85568H7.85556V5.89179C7.85556 4.26438 9.17398 2.94596 10.8014 2.94596H12.7653V5.40082H11.7833C11.2413 5.40082 10.8014 5.34976 10.8014 5.89179V7.85568H13.2563L12.2743 10.3105H10.8014V15.7112H13.7472C14.83 15.7112 15.7111 14.8301 15.7111 13.7473V1.96401C15.7111 0.880599 14.83 0.00012207 13.7472 0.00012207H1.96389C0.880477 0.00012207 0 0.880599 0 1.96401V13.7473C0 14.8301 0.880477 15.7112 1.96389 15.7112Z" fill="black"/>
<path d="M59.2662 4.90257C59.9051 4.48381 60.4426 3.96111 60.8805 3.35926V3.35865C60.296 3.59492 59.6741 3.75203 59.0247 3.82817C59.6924 3.46017 60.2024 2.88188 60.4419 2.18515C59.8194 2.52778 59.132 2.76949 58.3995 2.90484C57.8084 2.32353 56.9659 1.96399 56.0468 1.96399C54.2635 1.96399 52.8279 3.30004 52.8279 4.93762C52.8279 5.17329 52.8495 5.39989 52.9026 5.61561C50.2251 5.49476 47.8554 4.31038 46.2633 2.50542C45.9858 2.95077 45.8221 3.46017 45.8221 4.00825C45.8221 5.03793 46.3962 5.95038 47.2531 6.47912C46.7353 6.47006 46.228 6.33107 45.7979 6.11293V6.14556C45.7979 7.59038 46.914 8.79047 48.3784 9.06722C48.1159 9.1337 47.8305 9.16512 47.534 9.16512C47.3277 9.16512 47.1196 9.15424 46.9245 9.11436C47.3415 10.2915 48.5264 11.1574 49.9338 11.1858C48.838 11.9768 47.4462 12.4536 45.9399 12.4536C45.6761 12.4536 45.4228 12.4427 45.1694 12.4131C46.5965 13.2621 48.2868 13.7473 50.1106 13.7473C55.7947 13.7473 59.4993 9.36997 59.2662 4.90257Z" fill="black"/>
<path d="M98.197 3.82138C95.9693 3.82138 94.1658 5.62685 94.1658 7.8526C94.1658 10.0803 95.9713 11.8838 98.197 11.8838C100.425 11.8838 102.228 10.0783 102.228 7.8526C102.228 5.62489 100.423 3.82138 98.197 3.82138ZM98.197 10.4692C96.751 10.4692 95.5805 9.29802 95.5805 7.8526C95.5805 6.40717 96.7516 5.23604 98.197 5.23604C99.6425 5.23604 100.814 6.40717 100.814 7.8526C100.814 9.29802 99.6431 10.4692 98.197 10.4692Z" fill="black"/>
<path d="M101.434 0.0493504C99.9883 -0.0180765 96.4081 -0.0148034 94.9614 0.0493504C93.6901 0.108922 92.5687 0.415943 91.6646 1.31999C90.1538 2.83087 90.3469 4.86677 90.3469 7.85254C90.3469 10.9084 90.1767 12.8971 91.6646 14.3851C93.1814 15.9012 95.2468 15.7029 98.1972 15.7029C101.224 15.7029 102.269 15.7048 103.339 15.2904C104.795 14.7255 105.893 13.4248 106 11.0884C106.068 9.6423 106.065 6.06278 106 4.61605C105.871 1.85809 104.391 0.185513 101.434 0.0493504ZM103.722 13.3855C102.731 14.3759 101.357 14.2876 98.1782 14.2876C94.9051 14.2876 93.5925 14.336 92.6348 13.3757C91.5318 12.2778 91.7314 10.5149 91.7314 7.84207C91.7314 4.22523 91.3602 1.62046 94.9902 1.43455C95.8242 1.40509 96.0696 1.39527 98.169 1.39527L98.1985 1.41491C101.687 1.41491 104.424 1.04962 104.588 4.67889C104.626 5.507 104.634 5.75576 104.634 7.85188C104.634 11.0871 104.695 12.4075 103.722 13.3855Z" fill="black"/>
<path d="M102.388 4.60429C102.908 4.60429 103.33 4.18253 103.33 3.66228C103.33 3.14202 102.908 2.72026 102.388 2.72026C101.868 2.72026 101.446 3.14202 101.446 3.66228C101.446 4.18253 101.868 4.60429 102.388 4.60429Z" fill="black"/>
<path d="M150.872 4.11522L150.891 4.23598C150.702 3.60199 150.189 3.11279 149.538 2.93473L149.524 2.93165C148.299 2.61866 143.371 2.61866 143.371 2.61866C143.371 2.61866 138.454 2.6125 137.217 2.93165C136.553 3.11279 136.04 3.60199 135.853 4.22304L135.85 4.23598C135.393 6.48544 135.389 9.18837 135.87 11.5968L135.85 11.4748C136.04 12.1088 136.553 12.598 137.204 12.776L137.218 12.7791C138.441 13.0927 143.371 13.0927 143.371 13.0927C143.371 13.0927 148.287 13.0927 149.525 12.7791C150.189 12.598 150.702 12.1088 150.889 11.4877L150.892 11.4748C151.1 10.4286 151.219 9.22472 151.219 7.99494C151.219 7.94996 151.219 7.90437 151.219 7.85878C151.219 7.81688 151.219 7.76697 151.219 7.71707C151.219 6.48667 151.1 5.28277 150.872 4.11522ZM141.798 10.1052V5.61178L145.9 7.86186L141.798 10.1052Z" fill="black"/>
</svg>
